<svg width="16" height="16" viewBox="0 0 16 16" fill="none" xmlns="http://www.w3.org/2000/svg">
<path d="M8.66927 14V15.3333H7.33594V14H2.0026C1.63442 14 1.33594 13.7015 1.33594 13.3333V2.66667C1.33594 2.29848 1.63442 2 2.0026 2H6.0026C6.79907 2 7.514 2.34917 8.0026 2.90279C8.4912 2.34917 9.20614 2 10.0026 2H14.0026C14.3708 2 14.6693 2.29848 14.6693 2.66667V13.3333C14.6693 13.7015 14.3708 14 14.0026 14H8.66927ZM13.3359 12.6667V3.33333H10.0026C9.2662 3.33333 8.66927 3.93029 8.66927 4.66667V12.6667H13.3359ZM7.33594 12.6667V4.66667C7.33594 3.93029 6.739 3.33333 6.0026 3.33333H2.66927V12.6667H7.33594Z" fill="#2E2636"/>
</svg>
