<svg width="20" height="20" viewBox="0 0 20 20" fill="none" xmlns="http://www.w3.org/2000/svg">
<path d="M14.1641 5.0013H18.3307V6.66797H16.6641V17.5013C16.6641 17.9616 16.291 18.3346 15.8307 18.3346H4.16406C3.70383 18.3346 3.33073 17.9616 3.33073 17.5013V6.66797H1.66406V5.0013H5.83073V2.5013C5.83073 2.04107 6.20383 1.66797 6.66406 1.66797H13.3307C13.791 1.66797 14.1641 2.04107 14.1641 2.5013V5.0013ZM14.9974 6.66797H4.9974V16.668H14.9974V6.66797ZM7.4974 9.16797H9.16406V14.168H7.4974V9.16797ZM10.8307 9.16797H12.4974V14.168H10.8307V9.16797ZM7.4974 3.33464V5.0013H12.4974V3.33464H7.4974Z" fill="#858A8E"/>
</svg>
