<svg width="24" height="24" viewBox="0 0 24 24" fill="none" xmlns="http://www.w3.org/2000/svg">
<path d="M12.0039 22C6.48107 22 2.00391 17.5229 2.00391 12C2.00391 6.47715 6.48107 2 12.0039 2C17.5267 2 22.0039 6.47715 22.0039 12C22.0039 17.5229 17.5267 22 12.0039 22ZM12.0039 20C16.4222 20 20.0039 16.4183 20.0039 12C20.0039 7.58172 16.4222 4 12.0039 4C7.58563 4 4.00391 7.58172 4.00391 12C4.00391 16.4183 7.58563 20 12.0039 20ZM8.50391 14H14.0039C14.28 14 14.5039 13.7762 14.5039 13.5C14.5039 13.2239 14.28 13 14.0039 13H10.0039C8.6232 13 7.50391 11.8808 7.50391 10.5C7.50391 9.11928 8.6232 8 10.0039 8H11.0039V6H13.0039V8H15.5039V9.99995H10.0039C9.72777 9.99995 9.50391 10.2239 9.50391 10.5C9.50391 10.7762 9.72777 11 10.0039 11H14.0039C15.3846 11 16.5039 12.1193 16.5039 13.5C16.5039 14.8808 15.3846 16 14.0039 16H13.0039V18H11.0039V16H8.50391V14Z" fill="url(#paint0_linear_1_3823)"/>
<defs>
<linearGradient id="paint0_linear_1_3823" x1="3.49902" y1="5.99805" x2="19.499" y2="17.998" gradientUnits="userSpaceOnUse">
<stop stop-color="#9A60FB"/>
<stop offset="1" stop-color="#6004F8"/>
</linearGradient>
</defs>
</svg>
