<svg width="20" height="20" viewBox="0 0 20 20" fill="none" xmlns="http://www.w3.org/2000/svg">
<path d="M9.9974 18.3346C5.39502 18.3346 1.66406 14.6036 1.66406 10.0013C1.66406 5.39893 5.39502 1.66797 9.9974 1.66797C14.5997 1.66797 18.3307 5.39893 18.3307 10.0013C18.3307 14.6036 14.5997 18.3346 9.9974 18.3346ZM9.9974 16.668C13.6793 16.668 16.6641 13.6832 16.6641 10.0013C16.6641 6.3194 13.6793 3.33464 9.9974 3.33464C6.3155 3.33464 3.33073 6.3194 3.33073 10.0013C3.33073 13.6832 6.3155 16.668 9.9974 16.668ZM10.8307 8.7513V12.5013H11.6641V14.168H8.33073V12.5013H9.16406V10.418H8.33073V8.7513H10.8307ZM11.2474 6.66797C11.2474 7.35833 10.6877 7.91797 9.9974 7.91797C9.30706 7.91797 8.7474 7.35833 8.7474 6.66797C8.7474 5.97761 9.30706 5.41797 9.9974 5.41797C10.6877 5.41797 11.2474 5.97761 11.2474 6.66797Z" fill="#843DFA"/>
</svg>
