<?xml version="1.0" encoding="utf-8"?>
<!-- Uploaded to: SVG Repo, www.svgrepo.com, Generator: SVG Repo Mixer Tools -->
<svg fill="#000000" width="800px" height="800px" viewBox="-7 0 32 32" version="1.1" xmlns="http://www.w3.org/2000/svg">
<title>intersex</title>
<path d="M17.56 4.12c0-0.44-0.36-0.88-0.84-0.88h-4.6c-0.48 0-0.84 0.36-0.84 0.84s0.36 0.84 0.84 0.84h2.6l-3.6 3.6c-1.16-0.92-2.64-1.48-4.24-1.48-3.76 0.040-6.88 3.12-6.88 6.92 0 3.52 2.64 6.4 6.040 6.84v3.56h-2c-0.48 0-0.84 0.36-0.84 0.84s0.36 0.84 0.84 0.84h2v1.88c0 0.48 0.36 0.84 0.84 0.84s0.84-0.36 0.84-0.84v-1.88h2c0.48 0 0.84-0.36 0.84-0.84s-0.36-0.84-0.84-0.84h-2v-3.56c3.4-0.4 6.040-3.32 6.040-6.84 0-1.6-0.56-3.040-1.48-4.24l3.6-3.6v2.76c0 0.48 0.36 0.84 0.84 0.84s0.84-0.36 0.84-0.84c0 0 0-4.76 0-4.76zM6.88 19.16c-2.88 0-5.2-2.32-5.2-5.2s2.32-5.2 5.2-5.2 5.2 2.32 5.2 5.2-2.32 5.2-5.2 5.2z"></path>
</svg>