<svg width="24" height="24" viewBox="0 0 24 24" fill="none" xmlns="http://www.w3.org/2000/svg">
<path d="M10.6144 17.7946L11.492 15.7844C12.2731 13.9956 13.6789 12.5716 15.4325 11.7932L17.8482 10.7209C18.6162 10.38 18.6162 9.2627 17.8482 8.92179L15.5079 7.88296C13.7092 7.08454 12.2782 5.60783 11.5105 3.75796L10.6215 1.61575C10.2916 0.820789 9.19319 0.820791 8.8633 1.61575L7.97427 3.75794C7.20657 5.60783 5.77553 7.08454 3.97685 7.88296L1.63658 8.92179C0.868537 9.2627 0.868536 10.38 1.63658 10.7209L4.0523 11.7932C5.80589 12.5716 7.21171 13.9956 7.99275 15.7844L8.8704 17.7946C9.20776 18.5672 10.277 18.5672 10.6144 17.7946ZM19.4014 22.6889L19.6482 22.1232C20.0882 21.1146 20.8807 20.3115 21.8695 19.8722L22.6299 19.5343C23.0412 19.3516 23.0412 18.7539 22.6299 18.5712L21.9121 18.2522C20.8978 17.8016 20.0911 16.9688 19.6586 15.9259L19.4052 15.3146C19.2285 14.8886 18.6395 14.8886 18.4628 15.3146L18.2094 15.9259C17.777 16.9688 16.9703 17.8016 15.956 18.2522L15.2381 18.5712C14.8269 18.7539 14.8269 19.3516 15.2381 19.5343L15.9985 19.8722C16.9874 20.3115 17.7798 21.1146 18.2198 22.1232L18.4667 22.6889C18.6473 23.103 19.2207 23.103 19.4014 22.6889Z" fill="white"/>
</svg>
