<svg width="30" height="33" viewBox="0 0 30 33" fill="none" xmlns="http://www.w3.org/2000/svg">
<path d="M0 21.1314V6.88521C0 5.75341 0.917503 4.83591 2.0493 4.83591H2.832C3.38486 4.83591 3.90772 4.60919 4.31815 4.23879C8.17291 0.760053 16.7865 -3.26436 25.4138 4.28701C25.806 4.6303 26.3091 4.83591 26.8303 4.83591H27.9507C29.0825 4.83591 30 5.75341 30 6.88521V21.471C30 31.3662 6.81008 40.5587 0.11483 21.8002C0.0392513 21.5885 0 21.3563 0 21.1314Z" fill="#843DFA" fill-opacity="0.1"/>
<path d="M2 20.8139V8.46718C2 7.48629 2.79517 6.69112 3.77606 6.69112H4.4544C4.93354 6.69112 5.38669 6.49463 5.7424 6.17362C9.08319 3.15871 16.5483 -0.329113 24.0253 6.21541C24.3652 6.51293 24.8012 6.69112 25.2529 6.69112H26.2239C27.2048 6.69112 28 7.48629 28 8.46718V21.1082C28 29.684 7.90207 37.6509 2.09952 21.3935C2.03402 21.21 2 21.0088 2 20.8139Z" fill="#843DFA" fill-opacity="0.15"/>
<path d="M15.166 23.5C14.53 23.5 13.936 23.386 13.384 23.158C12.844 22.93 12.37 22.618 11.962 22.222C11.566 21.814 11.254 21.34 11.026 20.8C10.798 20.26 10.684 19.666 10.684 19.018C10.684 18.658 10.726 18.274 10.81 17.866C10.906 17.458 11.044 17.026 11.224 16.57C11.416 16.102 11.638 15.616 11.89 15.112C12.142 14.608 12.436 14.08 12.772 13.528L14.446 10.684H16.678L16.75 10.864L14.608 14.392C14.26 14.968 13.954 15.514 13.69 16.03C13.426 16.534 13.198 17.02 13.006 17.488C12.826 17.944 12.676 18.388 12.556 18.82L12.07 17.182C12.25 16.798 12.472 16.45 12.736 16.138C13 15.826 13.294 15.562 13.618 15.346C13.942 15.13 14.278 14.968 14.626 14.86C14.986 14.752 15.352 14.698 15.724 14.698C16.42 14.698 17.062 14.89 17.65 15.274C18.238 15.646 18.706 16.144 19.054 16.768C19.414 17.392 19.594 18.076 19.594 18.82C19.594 19.72 19.402 20.524 19.018 21.232C18.646 21.928 18.124 22.48 17.452 22.888C16.78 23.296 16.018 23.5 15.166 23.5ZM15.184 21.448C15.616 21.448 16 21.346 16.336 21.142C16.684 20.938 16.954 20.656 17.146 20.296C17.338 19.924 17.434 19.498 17.434 19.018C17.434 18.61 17.332 18.232 17.128 17.884C16.936 17.524 16.672 17.236 16.336 17.02C16 16.792 15.622 16.678 15.202 16.678C14.746 16.678 14.338 16.786 13.978 17.002C13.63 17.206 13.354 17.488 13.15 17.848C12.958 18.196 12.862 18.586 12.862 19.018C12.862 19.474 12.958 19.888 13.15 20.26C13.354 20.62 13.63 20.908 13.978 21.124C14.326 21.34 14.728 21.448 15.184 21.448Z" fill="#843DFA"/>
</svg>
