<svg width="30" height="33" viewBox="0 0 30 33" fill="none" xmlns="http://www.w3.org/2000/svg">
<path d="M0 21.1314V6.88521C0 5.75341 0.917503 4.83591 2.0493 4.83591H2.832C3.38486 4.83591 3.90772 4.60919 4.31815 4.23879C8.17291 0.760053 16.7865 -3.26436 25.4138 4.28701C25.806 4.6303 26.3091 4.83591 26.8303 4.83591H27.9507C29.0825 4.83591 30 5.75341 30 6.88521V21.471C30 31.3662 6.81008 40.5587 0.11483 21.8002C0.0392513 21.5885 0 21.3563 0 21.1314Z" fill="#843DFA" fill-opacity="0.1"/>
<path d="M2 20.8139V8.46718C2 7.48629 2.79517 6.69112 3.77606 6.69112H4.4544C4.93354 6.69112 5.38669 6.49463 5.7424 6.17362C9.08319 3.15871 16.5483 -0.329113 24.0253 6.21541C24.3652 6.51293 24.8012 6.69112 25.2529 6.69112H26.2239C27.2048 6.69112 28 7.48629 28 8.46718V21.1082C28 29.684 7.90207 37.6509 2.09952 21.3935C2.03402 21.21 2 21.0088 2 20.8139Z" fill="#843DFA" fill-opacity="0.15"/>
</svg>
