<svg width="24" height="24" viewBox="0 0 24 24" fill="none" xmlns="http://www.w3.org/2000/svg">
<path d="M9.75 4.5C12.8006 4.5 15.3195 6.77672 15.7003 9.72371L17.3882 12.3778C17.4993 12.5525 17.4769 12.8135 17.2195 12.9238L15.75 13.5533V15.75C15.75 16.5785 15.0785 17.25 14.25 17.25H12.7508L12.75 19.5H6L6.00019 16.7296C6.00025 15.8439 5.67263 15.0065 5.06663 14.2508C4.2428 13.2235 3.75 11.9193 3.75 10.5C3.75 7.18629 6.43629 4.5 9.75 4.5ZM18.8651 16.5768L17.617 15.7447C18.3327 14.6732 18.75 13.3853 18.75 12.0001C18.75 10.6147 18.3327 9.32692 17.617 8.25541L18.8651 7.42328C19.74 8.73289 20.25 10.3069 20.25 12.0001C20.25 13.6932 19.74 15.2671 18.8651 16.5768Z" fill="#767676"/>
</svg>
