<svg width="20" height="20" viewBox="0 0 20 20" fill="none" xmlns="http://www.w3.org/2000/svg">
<path d="M1.66406 18.332C1.66406 14.6501 4.64883 11.6654 8.33073 11.6654C12.0126 11.6654 14.9974 14.6501 14.9974 18.332H13.3307C13.3307 15.5706 11.0921 13.332 8.33073 13.332C5.5693 13.332 3.33073 15.5706 3.33073 18.332H1.66406ZM8.33073 10.832C5.56823 10.832 3.33073 8.59453 3.33073 5.83203C3.33073 3.06953 5.56823 0.832031 8.33073 0.832031C11.0932 0.832031 13.3307 3.06953 13.3307 5.83203C13.3307 8.59453 11.0932 10.832 8.33073 10.832ZM8.33073 9.16536C10.1724 9.16536 11.6641 7.6737 11.6641 5.83203C11.6641 3.99036 10.1724 2.4987 8.33073 2.4987C6.48906 2.4987 4.9974 3.99036 4.9974 5.83203C4.9974 7.6737 6.48906 9.16536 8.33073 9.16536ZM15.2338 12.251C17.5511 13.2954 19.1641 15.6254 19.1641 18.332H17.4974C17.4974 16.302 16.2876 14.5546 14.5497 13.7713L15.2338 12.251ZM14.6609 2.84304C16.3261 3.52956 17.4974 5.16837 17.4974 7.08203C17.4974 9.47386 15.6676 11.4364 13.3307 11.6467V9.9692C14.7446 9.7672 15.8307 8.55203 15.8307 7.08203C15.8307 5.93149 15.1654 4.93706 14.1982 4.46232L14.6609 2.84304Z" fill="black"/>
</svg>
