<svg width="20" height="20" viewBox="0 0 20 20" fill="none" xmlns="http://www.w3.org/2000/svg">
<path d="M16.6693 18.332H15.0026V16.6654C15.0026 15.2846 13.8834 14.1654 12.5026 14.1654H7.5026C6.1219 14.1654 5.0026 15.2846 5.0026 16.6654V18.332H3.33594V16.6654C3.33594 14.3642 5.20142 12.4987 7.5026 12.4987H12.5026C14.8038 12.4987 16.6693 14.3642 16.6693 16.6654V18.332ZM10.0026 10.832C7.24118 10.832 5.0026 8.59345 5.0026 5.83203C5.0026 3.07061 7.24118 0.832031 10.0026 0.832031C12.764 0.832031 15.0026 3.07061 15.0026 5.83203C15.0026 8.59345 12.764 10.832 10.0026 10.832ZM10.0026 9.16536C11.8435 9.16536 13.3359 7.67298 13.3359 5.83203C13.3359 3.99108 11.8435 2.4987 10.0026 2.4987C8.16165 2.4987 6.66927 3.99108 6.66927 5.83203C6.66927 7.67298 8.16165 9.16536 10.0026 9.16536Z" fill="white"/>
</svg>
