<svg width="398" height="54" viewBox="0 0 398 54" fill="none" xmlns="http://www.w3.org/2000/svg">
<path d="M304.031 0.878906C305.906 0.878906 307.578 1.29901 309.019 2.1084C310.062 2.6948 310.998 3.48915 311.864 4.5459L312.231 5.01465C313.88 7.21821 315.063 10.1479 316.372 13.4053C318.091 17.6817 320.109 22.7308 323.694 26.4756C327.667 30.6226 332.846 32.5117 339.825 32.5117H398.121V34.6592H339.825C335.406 34.6592 331.492 33.9684 328.178 32.6279C325.407 31.5071 323.052 29.9643 320.984 27.9141L320.575 27.4971C316.759 23.5133 314.72 18.4658 312.864 13.8486C311.588 10.6726 310.456 8.00769 309.159 6.14258C307.838 4.24322 306.241 3.02738 304.03 3.02734C303.516 3.02734 302.426 3.03393 301.056 3.86523C299.71 4.68151 298.175 6.24181 296.607 9.17383C294.393 13.3149 292.762 18.9138 291.071 24.7041C289.095 31.4695 287.089 38.3223 284.022 43.5986C282.292 46.5772 280.4 48.7535 278.251 50.2959C275.645 52.1664 272.611 53.12 269.205 53.1201C266.392 53.1198 263.791 52.3966 261.456 50.9717C259.535 49.7988 257.773 48.1529 256.075 45.9092H256.074C253.094 41.9674 250.897 36.9667 248.723 32.0107C247.169 28.4655 245.655 25.0087 243.986 22.3975L243.65 21.8867C242.885 20.7573 242.099 19.8429 241.319 19.2012C240.554 18.5712 239.705 18.1309 238.829 18.1309C236.888 18.1309 235.376 19.0218 234.027 20.4648C232.709 21.876 231.477 23.8901 230.084 26.2725C228.343 29.2521 226.616 32.1973 224.014 34.5615C222.515 35.9228 220.907 36.9288 219.088 37.6465C217.023 38.4608 214.683 38.8809 212.127 38.8809C209.722 38.8809 207.564 38.4443 205.701 37.6045C204.069 36.8682 202.656 35.8347 201.374 34.4316C199.167 32.0139 197.722 28.8685 196.261 25.6719C194.668 22.1866 193.215 19.2399 191.308 17.1807C189.343 15.0596 186.916 13.8965 183.49 13.8965C182.472 13.8965 181.235 14.0322 179.909 14.7266C178.587 15.419 177.248 16.6289 175.948 18.6582C174.138 21.4833 172.824 25.3002 171.632 29.0342L171.128 30.627C169.656 35.2908 168.176 39.9549 165.852 43.5078C164.517 45.5473 163.028 47.0385 161.309 48.1006C159.245 49.375 156.821 50.0322 154.079 50.0322C151.358 50.0322 148.993 49.3107 146.937 47.9004C145.257 46.749 143.774 45.1249 142.408 42.8936C140.012 38.9779 138.339 33.7256 136.683 28.5068C135.064 23.4081 133.352 17.9949 130.905 13.9463L130.666 13.5596C128.962 10.8556 127.2 9.28312 125.511 8.39648C123.818 7.50824 122.269 7.34473 121.064 7.34473C116.936 7.34475 114.144 8.64975 111.991 11.0664C109.904 13.4099 108.46 16.762 106.866 20.7051C105.353 24.4483 103.843 28.1726 101.305 31.2959C98.276 35.0237 94.2539 37.268 88.9326 38.1396C87.4486 38.3831 86.012 38.5029 84.6338 38.5029C79.4362 38.5028 75.0029 36.8003 71.6006 33.5137C67.325 29.3836 59.702 28.1452 53.4453 30.4111C48.3102 32.2707 43.2061 34.0116 39.9258 34.4785C35.9393 35.0459 26.3235 35.2242 17.4639 35.2539C10.0937 35.2786 3.31687 35.1977 0.90332 35.166L0.964844 33.0176C3.25368 33.0471 9.75423 33.1236 16.8516 33.1074C25.5674 33.0876 35.2925 32.9341 39.1494 32.3848C41.6881 32.0234 46.1163 30.546 50.0273 29.1533L51.665 28.5654C59.7098 25.6525 69.391 27.3422 74.6523 32.4248C78.1498 35.8035 82.5804 36.9603 88.0449 36.0645H88.0459C92.8118 35.2827 95.948 33.1152 98.2451 30.208C100.506 27.3463 101.943 23.7767 103.363 20.2607C104.93 16.3847 106.346 12.9012 108.781 10.1582C110.184 8.57852 111.776 7.41698 113.66 6.59375C115.763 5.67561 118.25 5.19727 121.066 5.19727C124.051 5.19733 126.708 5.96778 128.987 7.46973C130.876 8.71404 132.532 10.466 134.044 12.8652C136.37 16.5568 138.016 21.2722 139.563 26.0898L140.223 28.1582C141.802 33.1316 143.476 38.4269 145.797 42.2188C147.293 44.6647 148.813 46.0987 150.267 46.9131C151.728 47.7321 153.053 47.8857 154.079 47.8857C158.166 47.8857 160.913 45.4357 162.919 42.0967C164.908 38.7859 166.278 34.4275 167.587 30.2803C169.002 25.7985 170.422 21.3199 172.578 17.9541C173.819 16.0167 175.193 14.6036 176.773 13.5986H176.774C178.691 12.3791 180.942 11.75 183.488 11.75C186.076 11.75 188.171 12.1916 190.084 13.0459C191.762 13.7954 193.214 14.8467 194.527 16.2744C196.793 18.7371 198.258 21.9288 199.739 25.1699C201.302 28.5896 202.726 31.4813 204.575 33.5029C206.481 35.5863 208.827 36.7353 212.124 36.7354C215.848 36.7354 218.564 35.605 220.827 33.5967C223.044 31.6296 224.796 28.8428 226.674 25.6299C228.023 23.3216 229.244 21.2415 230.79 19.5693L231.104 19.2402C232.106 18.2219 233.147 17.4766 234.293 16.9443C235.656 16.311 237.179 15.9844 238.826 15.9844C240.601 15.9844 242.244 16.5218 243.727 17.5967C244.845 18.4078 245.915 19.5563 246.99 21.1436C248.862 23.9065 250.465 27.5559 252.208 31.5283C254.282 36.2579 256.48 41.279 259.357 45.084C261.3 47.6526 263.155 49.1385 264.854 49.9756C266.559 50.816 268.049 50.9736 269.204 50.9736C271.514 50.9736 273.619 50.3059 275.521 48.9414L275.521 48.9404C277.273 47.6827 278.881 45.8199 280.326 43.4404L280.613 42.958C283.608 37.8034 285.616 30.9092 287.522 24.3838C289.278 18.3751 290.902 12.8249 293.17 8.58301C294.454 6.18105 295.824 4.44292 297.342 3.21777C299.268 1.66505 301.508 0.878982 304.031 0.878906Z" fill="#8676CE" fill-opacity="0.2" stroke="white" stroke-width="1.75772"/>
</svg>
