<svg width="16" height="16" viewBox="0 0 16 16" fill="none" xmlns="http://www.w3.org/2000/svg">
<g clip-path="url(#clip0_2_6457)">
<path d="M7.33333 10.6239C4.88709 10.298 3 8.20337 3 5.66797C3 2.90654 5.23857 0.667969 8 0.667969C10.7614 0.667969 13 2.90654 13 5.66797C13 8.20337 11.1129 10.298 8.66667 10.6239V12.0013H12V13.3346H8.66667V16.0013H7.33333V13.3346H4V12.0013H7.33333V10.6239ZM8 9.33463C10.0251 9.33463 11.6667 7.69304 11.6667 5.66797C11.6667 3.64292 10.0251 2.0013 8 2.0013C5.97495 2.0013 4.33333 3.64292 4.33333 5.66797C4.33333 7.69304 5.97495 9.33463 8 9.33463Z" fill="#2E2636"/>
</g>
<defs>
<clipPath id="clip0_2_6457">
<rect width="16" height="16" fill="white"/>
</clipPath>
</defs>
</svg>
